<?xml version="1.0" encoding="UTF-8"?>
<svg width="2562px" height="754px" viewBox="0 0 2562 754" xmlns="http://www.w3.org/2000/svg" xmlns:xlink="http://www.w3.org/1999/xlink" version="1.1">
 <!-- Generated by Pixelmator Pro 2.2 -->
 <g id="New-Group">
  <path id="Path" d="M1821 201 L1821 417 2001 297 Z" fill="#fafeff" fill-opacity="1" stroke="#ffffff" stroke-width="15" stroke-opacity="1" stroke-linejoin="round" stroke-linecap="round"/>
  <path id="Path-1" d="M2142 0 L1824 198 2154 378 2154 747 2562 492" fill="none" stroke="#ffffff" stroke-width="15" stroke-opacity="1" stroke-linejoin="round" stroke-linecap="round"/>
  <path id="Path-2" d="M2562 117 L2154 378" fill="none" stroke="#ffffff" stroke-width="15" stroke-opacity="1" stroke-linejoin="round" stroke-linecap="round"/>
  <path id="Path-3" d="M2058 54 L2391.027 231.048 2394 594" fill="none" stroke="#ffffff" stroke-width="15" stroke-opacity="1" stroke-linejoin="round" stroke-linecap="round"/>
 </g>
 <path id="KYOZO" d="M851 576.5 C746.5 576.5 661.5 491.5 661.5 388 661.5 283 746.5 198.5 851 198.5 955.5 198.5 1040 283 1040 388 1040 491.5 955.5 576.5 851 576.5 Z M1553.5 576.5 C1449 576.5 1364 491.5 1364 388 1364 283 1449 198.5 1553.5 198.5 1658 198.5 1742.5 283 1742.5 388 1742.5 491.5 1658 576.5 1553.5 576.5 Z M0.5 569 L0.5 206 29 206 29 374.5 109 374.5 292.5 206 329.5 206 133 384 215.5 505 C232 529.5 255.5 542 290 542 L352 542 352 569 287.5 569 C244 569 214 553.5 193.5 522.5 L109 396.5 29 396.5 29 569 0.5 569 Z M503.5 569 L503.5 459 336 206 369.5 206 518.5 436 667 206 699.5 206 532 459 532 569 503.5 569 Z M1051.5 569 L1051.5 548 1304 233.5 1046.5 233.5 1046.5 206 1344.5 206 1344.5 227 1091 542 1357.5 542 1357.5 569 1051.5 569 Z M851 549 C940.5 549 1012 476.5 1012 388 1012 298.5 940.5 226 851 226 761.5 226 689.5 298.5 689.5 388 689.5 476.5 761.5 549 851 549 Z M1553.5 549 C1643 549 1714.5 476.5 1714.5 388 1714.5 298.5 1643 226 1553.5 226 1464 226 1392 298.5 1392 388 1392 476.5 1464 549 1553.5 549 Z" fill="#ffffff" fill-opacity="1" stroke="none"/>
</svg>
