<?xml version="1.0" encoding="UTF-8"?>
<svg width="108px" height="28px" viewBox="0 0 108 28" xmlns="http://www.w3.org/2000/svg" xmlns:xlink="http://www.w3.org/1999/xlink" version="1.1">
 <!-- Generated by Pixelmator Pro 1.4.1 -->
 <path id="path" d="M67.776 27.422 C60.314 27.422 55.289 22.983 55.289 14.032 55.289 5.117 60.314 0.567 67.776 0.567 L75.938 0.567 75.938 7.78 69.178 7.78 C65.188 7.78 63.01 9.889 63.01 14.032 63.01 18.138 65.188 20.209 69.178 20.209 L75.865 20.209 75.938 20.209 86.17 20.209 C86.946 20.209 87.5 19.655 87.5 18.989 87.5 18.508 87.316 18.175 86.762 17.657 L81.295 13.106 C79.005 11.145 78.045 9.407 78.045 7.002 78.045 3.673 80.667 0.567 84.656 0.567 L99.323 0.567 99.323 7.817 89.016 7.817 C88.203 7.817 87.686 8.409 87.686 9.037 87.686 9.555 87.907 9.963 88.535 10.481 L93.854 14.918 C95.922 16.657 97.143 18.692 97.143 21.022 97.143 24.388 94.519 27.422 90.53 27.422 L75.938 27.422 75.865 27.422 67.776 27.422 Z M100.209 27.422 L100.209 0.567 107.893 0.567 107.893 27.422 100.209 27.422 Z M40.291 0.012 C32.57 0.012 26.29 6.263 26.29 14.031 26.29 21.689 32.57 27.977 40.291 27.977 48.011 27.977 54.254 21.689 54.254 14.031 54.254 6.263 48.011 0.012 40.291 0.012 Z M40.291 7.41 C43.948 7.41 46.866 10.332 46.866 14.031 46.866 17.694 43.948 20.616 40.291 20.616 36.634 20.616 33.641 17.694 33.641 14.031 33.641 10.332 36.634 7.41 40.291 7.41 Z M24.85 0.567 L17.425 0.567 17.425 14.956 7.081 0.567 0.026 0.567 0.026 27.422 7.414 27.422 7.414 12.774 17.757 27.422 24.85 27.422 Z" fill="#ffffff" fill-opacity="1" stroke="none"/>
</svg>
